<svg xmlns="http://www.w3.org/2000/svg" viewBox="0 0 751.53 150.65"><defs><style>.cls-1{fill:#fff;}</style></defs><g id="Layer_2" data-name="Layer 2"><g id="Layer_1-2" data-name="Layer 1"><path class="cls-1" d="M121.76,1,96.62,63.8H109l5-13.65h24l5,13.65h12.06L130.1,1Zm-4.22,39.49L126,17.6l8.44,22.92Z"/><path class="cls-1" d="M224.89,53.92c-13.47,0-19.2-9.57-19.2-22,0-11.57,5.73-21.1,19-21.1,8.16,0,14.63,3.31,17,11.47l10.54-4.19A28.56,28.56,0,0,0,224.78,0C204.14,0,194.51,15.2,194.51,32.4s9.7,32.28,30.52,32.28a28.43,28.43,0,0,0,27.39-18.22l-10.55-4.25A16.46,16.46,0,0,1,224.89,53.92Z"/><polygon class="cls-1" points="332.62 26.74 357.73 1.03 342.61 1.03 312.05 33.77 312.05 1.03 312.02 1.03 300.77 1.03 290.71 1.03 290.71 11.2 300.77 11.2 300.77 63.8 312.05 63.8 312.05 47.48 324.82 34.3 344.15 63.8 358.22 63.8 332.62 26.74"/><path class="cls-1" d="M437.65,30.46a14,14,0,0,0,8-13C445.66,5.71,436.59,1,426.43,1H406.5v62.7h22.08c11.35,0,20.14-6.19,20.14-17.58A16.08,16.08,0,0,0,437.65,30.46ZM414.3,8.14h12.27c7.25,0,11.85,3.23,11.85,9.74a9.43,9.43,0,0,1-10.34,10H414.3Zm14.35,48.2-14.35-.07V34.75h15.3c.3,0,.61,0,.91,0A10.54,10.54,0,0,1,441,45.3C441,52.83,436.7,56.34,428.65,56.34Z"/><path class="cls-1" d="M526.22.26C506.28.26,497,15.27,497,32.4s9.11,32.13,29.15,32.13,29.39-15,29.39-32.13S546.15.26,526.22.26ZM547.35,32.4c0,13.53-6.12,25.17-21.1,25.17S505.16,45.9,505.16,32.4s6.11-25.14,21.09-25.14,21.1,11.64,21.1,25.14Z"/><polygon class="cls-1" points="645.91 50.96 616.3 1.03 608.28 1.03 608.28 63.8 615.77 63.8 615.77 13.73 645.31 63.8 653.39 63.8 653.39 1.03 645.91 1.03 645.91 50.96"/><polygon class="cls-1" points="751.53 8.24 751.53 1.03 710.25 1.03 710.25 63.69 751.53 63.69 751.53 56.27 718.09 56.27 718.09 35.95 748.51 35.95 748.51 28.71 718.09 28.71 718.09 8.24 751.53 8.24"/><path class="cls-1" d="M45.46,30.22A14.09,14.09,0,0,0,52.5,18C52.5,5.39,42,1,32.42,1H0V11.2H10.55V63.94H35.13c10.65,0,20.49-6.54,20.49-18.22A17.56,17.56,0,0,0,45.46,30.22Zm-23.38-19H32.63c5.38,0,9.56,2.49,9.56,7.38,0,6.05-4.29,7.74-8.72,7.74H22.08ZM35.3,53H21.94V36H34.88l.51,0a8.75,8.75,0,0,1,9.12,8.37C44.51,50.26,41.14,53,35.3,53Z"/><path class="cls-1" d="M221.51,124.7c0-.07,0-.14,0-.21a4.49,4.49,0,0,1,4.91-4,6.57,6.57,0,0,1,6,3.83l4.29-2.63a11,11,0,0,0-10.09-5.81l-.75,0a9.35,9.35,0,0,0-9.51,9.19c0,10.9,16.8,8.36,16.8,16,0,2.85-2.32,5-6.29,5h0a7,7,0,0,1-7.55-6.47l-5.13,1.3a12,12,0,0,0,12.58,9.74c6.4,0,11.57-3.87,11.57-10.06C238.32,129.3,221.51,131.73,221.51,124.7Z"/><polygon class="cls-1" points="273.76 132.19 264.59 116.33 262.97 116.33 262.97 116.29 255.9 116.29 255.9 120.93 261.16 120.93 271.13 137.14 271.13 150.29 276.5 150.29 276.5 137.14 289.3 116.33 283.01 116.33 273.76 132.19"/><path class="cls-1" d="M316.45,124.7v-.09a4.51,4.51,0,0,1,4.82-4.17,6.53,6.53,0,0,1,6,3.83l4.29-2.63a11,11,0,0,0-10.09-5.81l-.75,0a9.36,9.36,0,0,0-9.52,9.19c0,10.9,16.81,8.36,16.81,16,0,2.85-2.32,5-6.29,5h0a7,7,0,0,1-7.55-6.47l-5.14,1.3a12,12,0,0,0,12.7,9.74c6.4,0,11.57-3.87,11.57-10.06C333.26,129.3,316.45,131.73,316.45,124.7Z"/><polygon class="cls-1" points="354.35 120.93 365.39 120.93 365.39 150.26 370.56 150.26 370.56 120.93 381.6 120.93 381.6 116.29 354.35 116.29 354.35 120.93"/><polygon class="cls-1" points="405.86 150.26 428.33 150.26 428.33 145.37 411.03 145.37 411.03 135.63 426.92 135.63 426.92 130.85 411.03 130.85 411.03 121.07 428.33 121.07 428.33 116.29 405.86 116.29 405.86 150.26"/><polygon class="cls-1" points="471.58 141.57 461.77 116.29 454.74 116.29 454.74 150.26 459.69 150.26 459.69 123.43 469.01 147.37 474.04 147.37 483.39 123.43 483.39 150.26 488.35 150.26 488.35 116.29 481.39 116.29 471.58 141.57"/><path class="cls-1" d="M520.73,124.7c0-.08,0-.16,0-.24a4.47,4.47,0,0,1,4.87-4,6.55,6.55,0,0,1,6,3.83l4.29-2.63a11,11,0,0,0-10.09-5.81c-.26,0-.53,0-.79,0a9.33,9.33,0,0,0-9.45,9.19c0,10.9,16.78,8.36,16.78,16,0,2.85-2.32,5-6.3,5h0a7,7,0,0,1-7.56-6.47l-5.13,1.3A12,12,0,0,0,526,150.61c6.37,0,11.53-3.87,11.53-10.06C537.5,129.3,520.73,131.73,520.73,124.7Z"/></g></g></svg>